<svg width="700" height="700" viewBox="0 0 700 700" fill="none" xmlns="http://www.w3.org/2000/svg">
<path d="M0 700C2.5886 651.464 5.1772 603.143 39.9076 568.629C74.6379 534.33 141.726 514.052 169.769 480.401C198.028 446.749 187.673 399.723 201.479 366.934C215.069 333.929 253.035 315.378 269.861 269.861C286.687 224.345 282.157 152.08 311.063 117.997C339.969 83.9137 402.096 87.7966 454.73 108.074C507.581 128.351 551.156 165.239 590.632 149.923C629.892 134.607 665.054 67.3035 700 0V700H0Z" fill="#6650F5"/>
<path d="M144.118 700C146.173 661.456 148.229 623.084 175.809 595.676C203.389 568.438 256.664 552.336 278.934 525.612C301.375 498.889 293.152 461.544 304.116 435.506C314.908 409.297 345.058 394.564 358.419 358.419C371.781 322.274 368.184 264.887 391.138 237.821C414.093 210.755 463.429 213.838 505.227 229.941C547.197 246.044 581.8 275.337 613.149 263.174C644.326 251.011 672.249 197.565 700 144.118L700 700L144.118 700Z" fill="#5643D0"/>
<path d="M288.235 700C289.758 671.449 291.281 643.025 311.71 622.723C332.14 602.547 371.603 590.619 388.099 570.824C404.722 551.029 398.631 523.366 406.752 504.079C414.747 484.664 437.08 473.751 446.977 446.977C456.875 420.203 454.21 377.694 471.214 357.645C488.217 337.596 524.762 339.88 555.724 351.808C586.812 363.736 612.444 385.435 635.666 376.425C658.76 367.416 679.443 327.826 700 288.235L700 700L288.235 700Z" fill="#4233A6"/>
<path d="M432.353 700C433.343 681.442 434.332 662.966 447.612 649.77C460.891 636.655 486.542 628.902 497.265 616.035C508.069 603.169 504.11 585.188 509.389 572.651C514.585 560.032 529.102 552.938 535.535 535.535C541.969 518.132 540.236 490.501 551.289 477.469C562.341 464.438 586.095 465.922 606.22 473.675C626.428 481.428 643.089 495.532 658.183 489.676C673.194 483.82 686.638 458.087 700 432.353L700 700L432.353 700Z" fill="#352887"/>
</svg>
