<svg width="1920" height="1080" viewBox="0 0 1920 1080" fill="none" xmlns="http://www.w3.org/2000/svg">
<rect width="1920" height="1080" fill="#F3EEFF"/>
<path d="M1220 1080C1222.59 1031.46 1225.18 983.143 1259.91 948.629C1294.64 914.33 1361.73 894.052 1389.77 860.401C1418.03 826.749 1407.67 779.723 1421.48 746.934C1435.07 713.929 1473.04 695.378 1489.86 649.861C1506.69 604.345 1502.16 532.08 1531.06 497.997C1559.97 463.914 1622.1 467.797 1674.73 488.074C1727.58 508.351 1771.16 545.239 1810.63 529.923C1849.89 514.607 1885.05 447.304 1920 380V1080H1220Z" fill="#6650F5"/>
<path d="M1364.12 1080C1366.17 1041.46 1368.23 1003.08 1395.81 975.676C1423.39 948.438 1476.66 932.336 1498.93 905.612C1521.37 878.889 1513.15 841.544 1524.12 815.506C1534.91 789.297 1565.06 774.564 1578.42 738.419C1591.78 702.274 1588.18 644.887 1611.14 617.821C1634.09 590.755 1683.43 593.838 1725.23 609.941C1767.2 626.044 1801.8 655.337 1833.15 643.174C1864.33 631.011 1892.25 577.565 1920 524.118L1920 1080L1364.12 1080Z" fill="#5643D0"/>
<path d="M1508.24 1080C1509.76 1051.45 1511.28 1023.03 1531.71 1002.72C1552.14 982.547 1591.6 970.619 1608.1 950.824C1624.72 931.029 1618.63 903.366 1626.75 884.079C1634.75 864.664 1657.08 853.751 1666.98 826.977C1676.87 800.203 1674.21 757.694 1691.21 737.645C1708.22 717.596 1744.76 719.88 1775.72 731.808C1806.81 743.736 1832.44 765.435 1855.67 756.425C1878.76 747.416 1899.44 707.826 1920 668.235L1920 1080L1508.24 1080Z" fill="#4233A6"/>
<path d="M1652.35 1080C1653.34 1061.44 1654.33 1042.97 1667.61 1029.77C1680.89 1016.66 1706.54 1008.9 1717.26 996.035C1728.07 983.169 1724.11 965.188 1729.39 952.651C1734.59 940.032 1749.1 932.938 1755.54 915.535C1761.97 898.132 1760.24 870.501 1771.29 857.469C1782.34 844.438 1806.1 845.922 1826.22 853.675C1846.43 861.428 1863.09 875.532 1878.18 869.676C1893.19 863.82 1906.64 838.087 1920 812.353L1920 1080L1652.35 1080Z" fill="#352887"/>
</svg>
