<svg xmlns="http://www.w3.org/2000/svg" width="1920" height="1080" fill="none" viewBox="0 0 1920 1080">
  <path fill="#14111B" d="M1919.09 0H0v1078.86h1919.09V0z"/>
  <path fill="#6F00FF" d="M1920 779.178c-116.11-17.648-232.22-35.295-348.76-68.788-116.54-33.494-233.3-83.014-304.16-159.546-71.08-76.351-96.48-179.533-133.83-275.872C1095.69 178.633 1046.17 89.316 996.436 0H1920v779.178zM0 300.822c122.302 10.265 244.605 20.529 353.46 59.425C462.316 398.962 557.724 466.49 638.405 541.4c80.681 74.911 146.635 157.385 191.885 248.502 45.036 90.937 69.155 190.517 93.274 290.098H0V300.822z"/>
</svg>
