<svg xmlns="http://www.w3.org/2000/svg" width="250" height="352" fill="none" viewBox="0 0 250 352">
  <path stroke="#01BD90" stroke-linecap="round" stroke-linejoin="round" stroke-width="10" d="M27.924 346.222c11.851-26.697 23.703-53.396 36.257-77.549 12.554-24.153 25.809-45.759 39.532-65.282 13.724-19.523 27.915-36.962 38.987-51.238 11.072-14.275 19.025-25.386 25.185-35.495 6.159-10.108 10.526-19.213 15.438-31.79 4.912-12.578 10.37-28.628 14.425-42.518 4.055-13.89 6.706-25.618 9.358-37.35m-21.521 7.722c2.964 12.66 10.604 14.81 13.567 27.465l31.813-15.741m-60.351 9.722l19.218 32.388m-37.931-10.164l24.795 42.595M124.298 71.67l30.41 59.263m-53.334-39.817l30.878 68.522M74.24 110.561l39.766 74.078m-65.965-59.262l45.38 89.356M28.86 149.452l48.187 90.283M5 178.157l53.801 100.006M194.474 52.688l43.041 4.167m-51.93 26.853L245 90.19m-73.918 23.612l61.754 7.871M145.819 147.6l74.386 7.871m-89.825 15.741l81.872 10.649M109.795 197.14l98.246 15.279M92.953 224.456l106.199 17.13M71.876 255.075c36.184 5.557 70.516 11.051 106.691 16.606"/>
</svg>
