<svg xmlns="http://www.w3.org/2000/svg" width="1920" height="1080" fill="none" viewBox="0 0 1920 1080">
  <path fill="#140021" d="M1920 0H0v1080h1920V0z"/>
  <path fill="#5200FF" d="M1076.36 0H726.303v154h68.849v155h67.878v154h74.667v154H789.333v154h205.576v155H754.424v154H0V0h1076.36z"/>
  <path fill="#4B00C6" d="M437.333 0h101.819v154h66.909v155h-57.212v154H799.03v154h-160v154h121.212v155H582.788v154H0V0h437.333z"/>
  <path fill="#2E0090" d="M214.303 0h115.394v154h83.394v155h4.848v154h-55.272v154h58.181v154h-84.363v155h123.151v154H0V0h214.303z"/>
</svg>
