<svg id="visual" viewBox="0 0 900 600" width="900" height="600" xmlns="http://www.w3.org/2000/svg" xmlns:xlink="http://www.w3.org/1999/xlink" version="1.1"><rect x="0" y="0" width="900" height="600" fill="#140021"></rect><path d="M0 360L129 360L129 324L257 324L257 342L386 342L386 313L514 313L514 299L643 299L643 372L771 372L771 343L900 343L900 313L900 601L900 601L771 601L771 601L643 601L643 601L514 601L514 601L386 601L386 601L257 601L257 601L129 601L129 601L0 601Z" fill="#3902cb"></path><path d="M0 371L129 371L129 389L257 389L257 453L386 453L386 457L514 457L514 407L643 407L643 429L771 429L771 441L900 441L900 391L900 601L900 601L771 601L771 601L643 601L643 601L514 601L514 601L386 601L386 601L257 601L257 601L129 601L129 601L0 601Z" fill="#2201b1"></path><path d="M0 454L129 454L129 493L257 493L257 504L386 504L386 487L514 487L514 459L643 459L643 540L771 540L771 468L900 468L900 536L900 601L900 601L771 601L771 601L643 601L643 601L514 601L514 601L386 601L386 601L257 601L257 601L129 601L129 601L0 601Z" fill="#000098"></path></svg>