<svg xmlns="http://www.w3.org/2000/svg" width="732" height="437" fill="none" viewBox="0 0 732 437">
  <g clip-path="url(#clip0_311_61)">
    <path fill="#211C2D" d="M637.329 15h-143.79v9.25a2.04 2.04 0 00.461 1.3c-.29 7.23-.461 16.46-.461 26.49v247.3c0 23.18.93 42.04 2.071 42.04h139.649c1.141 0 2.07-18.86 2.07-42.04V52.04c0-10.03-.17-19.26-.46-26.49.3-.367.463-.826.46-1.3V15z"/>
    <path fill="#211C2D" d="M635.259 342.38h-139.65c-1.088 0-1.807 0-2.461-13.278-.393-7.969-.609-18.539-.609-29.762V52.04c0-9.694.164-19.116.461-26.53.186-4.452.4-8.018.634-10.6.459-5.056.896-5.91 1.975-5.91h139.65c1.08 0 1.517.854 1.976 5.91.235 2.592.448 6.158.633 10.598l.001.002c.297 7.406.46 16.828.46 26.53v247.3c0 11.224-.216 21.794-.608 29.762-.654 13.278-1.373 13.278-2.462 13.278zm-139.081-2h138.513c.724-2.733 1.638-17.57 1.638-41.04V52.04c0-9.675-.163-19.068-.459-26.448-.184-4.408-.395-7.942-.626-10.502a29.05 29.05 0 00-.562-4.09H496.187a29.05 29.05 0 00-.562 4.09c-.231 2.55-.442 6.084-.626 10.502-.296 7.386-.46 16.78-.46 26.448v247.3c0 23.469.915 38.307 1.639 41.04z"/>
    <path fill="#211C2D" d="M635.259 10H495.61a2.075 2.075 0 00-2.071 2.07v12.18a2.07 2.07 0 002.071 2.07h139.649a2.079 2.079 0 001.61-.77c.3-.367.463-.826.46-1.3V12.07a2.073 2.073 0 00-2.07-2.07z"/>
    <path fill="#ED4B4B" d="M505.559 20.505a2.94 2.94 0 100-5.88 2.94 2.94 0 000 5.88z"/>
    <path fill="#FFE500" d="M516.717 20.505a2.94 2.94 0 100-5.879 2.94 2.94 0 000 5.879z"/>
    <path fill="#5865F2" d="M527.875 20.505a2.94 2.94 0 100-5.88 2.94 2.94 0 000 5.88zM624.329 13.64h-12.85a.958.958 0 00-.95.95.804.804 0 00.1.41.946.946 0 00.85.54h12.85a.95.95 0 00.861-.54.908.908 0 00.089-.41.946.946 0 00-.586-.878.953.953 0 00-.364-.072zM624.329 17.21h-12.85a.95.95 0 100 1.9h12.85a.95.95 0 100-1.9zM624.329 20.78h-12.85a.95.95 0 100 1.9h12.85a.95.95 0 100-1.9z"/>
    <path fill="#6C63FF" d="M579.329 53.02h-26.44a5.003 5.003 0 00-5 5v22.9a5.008 5.008 0 005 5h26.44a5.013 5.013 0 005-5v-22.9a5.008 5.008 0 00-5-5z"/>
    <path fill="#5865F2" d="M612.179 100.88h-92.15a2.27 2.27 0 100 4.54h92.15a2.267 2.267 0 002.27-2.27 2.267 2.267 0 00-2.27-2.27zM555.029 111.52h-35a2.27 2.27 0 100 4.54h35a2.267 2.267 0 002.27-2.27 2.267 2.267 0 00-2.27-2.27z"/>
    <path fill="#6C63FF" d="M579.329 152.02h-26.44a4.999 4.999 0 00-5 5v22.9a5.009 5.009 0 005 5h26.44a5.013 5.013 0 005-5v-22.9a5.007 5.007 0 00-5-5z"/>
    <path fill="#5865F2" d="M612.179 199.88h-92.15a2.27 2.27 0 100 4.54h92.15a2.267 2.267 0 002.27-2.27 2.267 2.267 0 00-2.27-2.27zM555.029 210.52h-35a2.27 2.27 0 100 4.54h35a2.267 2.267 0 002.27-2.27 2.267 2.267 0 00-2.27-2.27z"/>
    <path fill="#6C63FF" d="M579.329 251.02h-26.44a4.999 4.999 0 00-5 5v22.9a5.009 5.009 0 005 5h26.44a5.013 5.013 0 005-5v-22.9a5.007 5.007 0 00-5-5z"/>
    <path fill="#5865F2" d="M612.179 298.88h-92.15a2.27 2.27 0 100 4.54h92.15a2.267 2.267 0 002.27-2.27 2.267 2.267 0 00-2.27-2.27zM555.029 309.52h-35a2.27 2.27 0 100 4.54h35a2.267 2.267 0 002.27-2.27 2.27 2.27 0 00-2.27-2.27z"/>
    <path fill="#1E192C" d="M454.329 3.07a2.073 2.073 0 00-2.07-2.07H82.609a2.074 2.074 0 00-2.07 2.07v12.18c-.002.507.188.996.53 1.37-.33 8.27-.53 19.17-.53 31.11v274.91c0 25.78.93 46.74 2.07 46.74h369.65c1.141 0 2.07-20.96 2.07-46.74V47.73c0-11.94-.199-22.84-.53-31.11.343-.374.532-.863.53-1.37V3.07z"/>
    <path fill="#211C2D" d="M452.259 370.38H82.609c-1.13 0-1.812 0-2.461-14.658-.393-8.855-.609-20.604-.609-33.082V47.73c0-11.507.189-22.57.531-31.15C80.728 0 81.476 0 82.61 0h369.649c1.133 0 1.882.003 2.54 16.58.342 8.572.53 19.635.53 31.15v274.91c0 12.479-.216 24.227-.608 33.082-.65 14.658-1.332 14.658-2.462 14.658zm-369.066-2h368.483c.818-3.135 1.653-20.74 1.653-45.74V47.73c0-11.49-.188-22.524-.529-31.07-.416-10.504-.903-13.7-1.135-14.66H83.205c-.233.96-.72 4.156-1.136 14.66-.342 8.554-.53 19.588-.53 31.07v274.91c0 25 .836 42.604 1.654 45.74z"/>
    <path fill="#1E192C" d="M452.259 1H82.609a2.074 2.074 0 00-2.07 2.07v12.18c-.002.507.188.996.53 1.37a2.05 2.05 0 001.54.7h369.65a2.055 2.055 0 001.54-.7c.343-.374.532-.863.53-1.37V3.07a2.073 2.073 0 00-2.07-2.07z"/>
    <path fill="#ED4B4B" d="M92.559 11.505a2.94 2.94 0 100-5.88 2.94 2.94 0 000 5.88z"/>
    <path fill="#FFE500" d="M103.717 11.505a2.94 2.94 0 100-5.879 2.94 2.94 0 000 5.879z"/>
    <path fill="#5865F2" d="M114.875 11.505a2.94 2.94 0 100-5.88 2.94 2.94 0 000 5.88zM441.329 4.64h-12.85a.95.95 0 100 1.9h12.85a.95.95 0 100-1.9zM441.329 8.21h-12.85a.95.95 0 100 1.9h12.85a.95.95 0 100-1.9zM441.329 11.78h-12.85a.95.95 0 100 1.9h12.85a.95.95 0 100-1.9z"/>
    <path fill="#6C63FF" d="M202.089 62.02h-43.26a8.192 8.192 0 00-8.179 8.18v37.47a8.187 8.187 0 008.179 8.18h43.26a8.192 8.192 0 008.18-8.18V70.2a8.189 8.189 0 00-8.18-8.18z"/>
    <path fill="#5865F2" d="M380.519 76.51h-150.78a3.715 3.715 0 100 7.43h150.78a3.716 3.716 0 000-7.43zM287.009 93.92h-57.27a3.716 3.716 0 000 7.43h57.27a3.711 3.711 0 003.715-3.715 3.714 3.714 0 00-3.715-3.715z"/>
    <path fill="#6C63FF" d="M202.089 162.02h-43.26a8.191 8.191 0 00-8.179 8.18v37.47a8.187 8.187 0 008.179 8.18h43.26a8.192 8.192 0 008.18-8.18V170.2a8.187 8.187 0 00-8.18-8.18z"/>
    <path fill="#5865F2" d="M380.519 176.51h-150.78a3.716 3.716 0 000 7.43h150.78a3.715 3.715 0 100-7.43zM287.009 193.92h-57.27a3.715 3.715 0 100 7.43h57.27a3.711 3.711 0 003.715-3.715 3.715 3.715 0 00-3.715-3.715z"/>
    <path fill="#6C63FF" d="M202.089 262.02h-43.26a8.191 8.191 0 00-8.179 8.18v37.47a8.187 8.187 0 008.179 8.18h43.26a8.192 8.192 0 008.18-8.18V270.2a8.187 8.187 0 00-8.18-8.18z"/>
    <path fill="#5865F2" d="M380.519 276.51h-150.78a3.716 3.716 0 000 7.43h150.78a3.715 3.715 0 100-7.43zM287.009 293.92h-57.27a3.715 3.715 0 100 7.43h57.27a3.711 3.711 0 003.715-3.715 3.715 3.715 0 00-3.715-3.715z"/>
    <path fill="#211C2D" d="M518.262 435.38H270.613c-1.141 0-2.07-17.55-2.07-39.123V166.123c0-21.574.929-39.124 2.07-39.124h247.649c1.142 0 2.071 17.55 2.071 39.124v230.134c0 21.573-.929 39.123-2.071 39.123z"/>
    <path fill="#211C2D" d="M518.262 436.38H270.613c-1.047 0-1.804 0-2.462-12.419-.392-7.415-.608-17.253-.608-27.705V166.123c0-10.451.216-20.29.608-27.705.658-12.419 1.415-12.419 2.462-12.419h247.649c1.048 0 1.805 0 2.462 12.419.393 7.415.609 17.254.609 27.705v230.133c0 10.452-.216 20.29-.609 27.705-.657 12.419-1.414 12.419-2.462 12.419zm-247.095-2h246.542c.718-2.591 1.624-16.394 1.624-38.124V166.123c0-21.73-.906-35.533-1.624-38.124H271.167c-.718 2.591-1.624 16.394-1.624 38.124v230.133c0 21.73.906 35.533 1.624 38.124z"/>
    <path fill="#211C2D" d="M518.262 143.32H270.613a2.075 2.075 0 01-2.07-2.071V129.07a2.075 2.075 0 012.07-2.071h247.649a2.076 2.076 0 012.071 2.071v12.179a2.076 2.076 0 01-2.071 2.071z"/>
    <path fill="#ED4B4B" d="M280.559 137.505a2.94 2.94 0 100-5.88 2.94 2.94 0 000 5.88z"/>
    <path fill="#FFE500" d="M291.717 137.505a2.94 2.94 0 100-5.879 2.94 2.94 0 000 5.879z"/>
    <path fill="#5865F2" d="M302.875 137.505a2.94 2.94 0 100-5.88 2.94 2.94 0 000 5.88zM507.33 132.542h-12.849a.951.951 0 010-1.903h12.849a.95.95 0 01.671 1.623.95.95 0 01-.671.28zM507.33 136.111h-12.849a.951.951 0 010-1.903h12.849a.955.955 0 01.952.951.952.952 0 01-.952.952zM507.33 139.68h-12.849a.951.951 0 010-1.903h12.849a.95.95 0 010 1.903z"/>
    <path fill="#6C63FF" d="M346.713 218.917H315.12a5.983 5.983 0 01-5.974-5.975v-27.363a5.978 5.978 0 015.974-5.975h31.593a5.983 5.983 0 015.975 5.975v27.363a5.983 5.983 0 01-5.975 5.975z"/>
    <path fill="#5865F2" d="M477.018 195.616H366.907a2.713 2.713 0 010-5.425h110.111c.719 0 1.409.286 1.918.794a2.716 2.716 0 010 3.836 2.713 2.713 0 01-1.918.795zM408.729 208.33h-41.822a2.713 2.713 0 010-5.425h41.822a2.708 2.708 0 012.511 1.673 2.728 2.728 0 010 2.079 2.714 2.714 0 01-2.511 1.673z"/>
    <path fill="#6C63FF" d="M346.713 299.917H315.12a5.983 5.983 0 01-5.974-5.975v-27.363a5.978 5.978 0 015.974-5.975h31.593a5.983 5.983 0 015.975 5.975v27.363a5.983 5.983 0 01-5.975 5.975z"/>
    <path fill="#5865F2" d="M477.018 276.616H366.907a2.713 2.713 0 010-5.425h110.111c.719 0 1.409.286 1.918.794a2.716 2.716 0 010 3.836 2.713 2.713 0 01-1.918.795zM408.729 289.33h-41.822a2.713 2.713 0 010-5.425h41.822a2.708 2.708 0 012.511 1.673 2.728 2.728 0 010 2.079 2.714 2.714 0 01-2.511 1.673z"/>
    <path fill="#6C63FF" d="M346.713 380.917H315.12a5.983 5.983 0 01-5.974-5.975v-27.363a5.978 5.978 0 015.974-5.975h31.593a5.983 5.983 0 015.975 5.975v27.363a5.983 5.983 0 01-5.975 5.975z"/>
    <path fill="#5865F2" d="M477.018 357.616H366.907a2.713 2.713 0 010-5.425h110.111c.719 0 1.409.286 1.918.794a2.716 2.716 0 010 3.836 2.713 2.713 0 01-1.918.795zM408.729 370.33h-41.822a2.713 2.713 0 010-5.425h41.822a2.708 2.708 0 012.511 1.673 2.728 2.728 0 010 2.079 2.714 2.714 0 01-2.511 1.673z"/>
  </g>
  <defs>
    <clipPath id="clip0_311_61">
      <path fill="#fff" d="M0 0h731.662v436.38H0z"/>
    </clipPath>
  </defs>
</svg>
