<svg xmlns="http://www.w3.org/2000/svg" viewBox="0 0 1440 320"><path fill="#6f00ff" fill-opacity="1" d="M0,192L24,186.7C48,181,96,171,144,165.3C192,160,240,160,288,138.7C336,117,384,75,432,101.3C480,128,528,224,576,234.7C624,245,672,171,720,154.7C768,139,816,181,864,176C912,171,960,117,1008,117.3C1056,117,1104,171,1152,197.3C1200,224,1248,224,1296,202.7C1344,181,1392,139,1416,117.3L1440,96L1440,320L1416,320C1392,320,1344,320,1296,320C1248,320,1200,320,1152,320C1104,320,1056,320,1008,320C960,320,912,320,864,320C816,320,768,320,720,320C672,320,624,320,576,320C528,320,480,320,432,320C384,320,336,320,288,320C240,320,192,320,144,320C96,320,48,320,24,320L0,320Z"></path></svg>
